<?xml version="1.0" encoding="UTF-8" standalone="no"?>
<!-- Created with Inkscape (http://www.inkscape.org/) -->

<svg
   width="512"
   height="512"
   viewBox="0 0 135.46666 135.46667"
   version="1.1"
   id="svg5"
   sodipodi:docname="icon_record_crop_dark.svg"
   inkscape:version="1.4.2 (f4327f4, 2025-05-13)"
   xmlns:inkscape="http://www.inkscape.org/namespaces/inkscape"
   xmlns:sodipodi="http://sodipodi.sourceforge.net/DTD/sodipodi-0.dtd"
   xmlns="http://www.w3.org/2000/svg"
   xmlns:svg="http://www.w3.org/2000/svg"
   xmlns:rdf="http://www.w3.org/1999/02/22-rdf-syntax-ns#"
   xmlns:cc="http://creativecommons.org/ns#"
   xmlns:dc="http://purl.org/dc/elements/1.1/">
  <title
     id="title1">CaptureCap notification record icon</title>
  <sodipodi:namedview
     id="namedview7"
     pagecolor="#000000"
     bordercolor="#666666"
     borderopacity="1.0"
     inkscape:pageshadow="2"
     inkscape:pageopacity="0.0"
     inkscape:pagecheckerboard="0"
     inkscape:document-units="px"
     showgrid="false"
     units="px"
     width="512px"
     inkscape:zoom="0.65778824"
     inkscape:cx="297.20811"
     inkscape:cy="295.68786"
     inkscape:window-width="1920"
     inkscape:window-height="1001"
     inkscape:window-x="-9"
     inkscape:window-y="-9"
     inkscape:window-maximized="1"
     inkscape:current-layer="g6"
     inkscape:lockguides="false"
     showguides="true"
     inkscape:showpageshadow="2"
     inkscape:deskcolor="#d1d1d1">
    <inkscape:grid
       type="xygrid"
       id="grid2352"
       originx="0"
       originy="0"
       spacingy="1"
       spacingx="1"
       units="px"
       visible="false" />
  </sodipodi:namedview>
  <defs
     id="defs2" />
  <metadata
     id="metadata1">
    <rdf:RDF>
      <cc:Work
         rdf:about="">
        <dc:title>CaptureCap notification record icon</dc:title>
        <dc:creator>
          <cc:Agent>
            <dc:title>Egor Olegovich Yakovlev</dc:title>
          </cc:Agent>
        </dc:creator>
        <cc:license
           rdf:resource="http://creativecommons.org/publicdomain/zero/1.0/" />
      </cc:Work>
      <cc:License
         rdf:about="http://creativecommons.org/publicdomain/zero/1.0/">
        <cc:permits
           rdf:resource="http://creativecommons.org/ns#Reproduction" />
        <cc:permits
           rdf:resource="http://creativecommons.org/ns#Distribution" />
        <cc:permits
           rdf:resource="http://creativecommons.org/ns#DerivativeWorks" />
      </cc:License>
    </rdf:RDF>
  </metadata>
  <g
     id="g6"
     transform="translate(2.4371542,-6.5326981)">
    <path
       id="path2"
       style="fill:#e6e6e6;fill-opacity:1;stroke-width:1.32694;baseline-shift:baseline;display:inline;overflow:visible;vector-effect:none;enable-background:accumulate;stop-color:#000000;stop-opacity:1;opacity:1"
       d="M 41.87245 18.295149 L 44.795926 86.617971 L -5.5825604 40.37434 L 7.3061824 81.377523 L 45.265303 97.595051 L 46.093236 116.93443 C 43.808509 117.87831 41.849311 119.56222 40.394886 121.59752 C 38.131251 124.76521 36.87077 128.86715 36.870771 133.33005 C 36.870772 137.79294 38.130768 141.8951 40.394403 145.06279 C 42.658039 148.23048 46.145216 150.54699 50.177539 150.54699 C 54.209863 150.547 57.695614 148.23055 59.959249 145.06286 C 62.222885 141.89517 63.482693 137.79308 63.482694 133.33019 C 63.482695 128.86729 62.222698 124.76513 59.959062 121.59744 C 58.270899 119.23505 55.902877 117.34629 53.135615 116.53848 L 52.653754 103.50659 L 62.31134 112.26924 C 61.146548 114.90646 61.066122 117.93442 61.785852 120.74763 C 62.750845 124.51951 65.07706 128.1251 68.490843 130.99974 C 71.90462 133.87437 75.853791 135.55319 79.734888 135.86205 C 83.615985 136.17091 87.632863 134.99694 90.230154 131.91251 C 92.827452 128.82808 93.30201 124.66835 92.337017 120.89647 C 91.372024 117.12458 89.045801 113.51899 85.632026 110.64435 C 82.218243 107.76971 78.269078 106.0909 74.387981 105.78204 C 71.894303 105.58359 69.343889 105.99804 67.150249 107.13771 L 52.890185 94.048335 L 64.935496 54.565968 L 41.87245 18.295149 z M 75.560538 113.07889 C 77.359561 113.54386 79.32665 114.51433 81.109128 116.0153 C 83.485756 118.01658 84.987855 120.50216 85.5341 122.63727 C 86.080339 124.77237 85.746627 126.33613 84.859586 127.38954 C 83.972546 128.44294 82.48895 129.03739 80.292029 128.86256 C 78.095102 128.68772 75.390371 127.63008 73.013742 125.62879 C 70.637104 123.6275 69.134337 121.14177 68.588099 119.00667 C 68.041853 116.87157 68.375274 115.30915 69.262315 114.25574 C 70.149356 113.20234 71.633912 112.6067 73.83084 112.78154 C 74.38007 112.82524 74.960863 112.92389 75.560538 113.07889 z M 51.214117 123.28056 C 52.251688 123.57606 53.284763 124.33501 54.245774 125.67984 C 55.527122 127.47293 56.460937 130.22312 56.460936 133.33014 C 56.460936 136.43715 55.527126 139.1875 54.245779 140.9806 C 52.964431 142.77369 51.554728 143.52521 50.177591 143.52521 C 48.800455 143.52521 47.389038 142.77349 46.107691 140.9804 C 44.826343 139.1873 43.89253 136.4371 43.892529 133.33009 C 43.892528 130.22307 44.826338 127.47272 46.107686 125.67963 C 47.389034 123.88653 48.800896 123.13481 50.178033 123.13481 C 50.522318 123.13481 50.868261 123.18206 51.214117 123.28056 z "
       transform="matrix(0.73462138,-0.16397398,0.16353227,0.73660565,17.249716,20.029163)" />
  </g>
</svg>
