<?xml version="1.0" encoding="UTF-8" standalone="no"?>
<!-- Created with Inkscape (http://www.inkscape.org/) -->

<svg
   width="512"
   height="512"
   viewBox="0 0 135.46666 135.46667"
   version="1.1"
   id="svg5"
   sodipodi:docname="icon_crop_audio_artwork.svg"
   inkscape:version="1.4.2 (f4327f4, 2025-05-13)"
   xmlns:inkscape="http://www.inkscape.org/namespaces/inkscape"
   xmlns:sodipodi="http://sodipodi.sourceforge.net/DTD/sodipodi-0.dtd"
   xmlns="http://www.w3.org/2000/svg"
   xmlns:svg="http://www.w3.org/2000/svg"
   xmlns:rdf="http://www.w3.org/1999/02/22-rdf-syntax-ns#"
   xmlns:cc="http://creativecommons.org/ns#"
   xmlns:dc="http://purl.org/dc/elements/1.1/">
  <title
     id="title1">CaptureCap notification record icon</title>
  <sodipodi:namedview
     id="namedview7"
     pagecolor="#000000"
     bordercolor="#666666"
     borderopacity="1.0"
     inkscape:pageshadow="2"
     inkscape:pageopacity="0.0"
     inkscape:pagecheckerboard="0"
     inkscape:document-units="px"
     showgrid="false"
     units="px"
     width="512px"
     inkscape:zoom="0.93025306"
     inkscape:cx="172.5337"
     inkscape:cy="374.62924"
     inkscape:window-width="1920"
     inkscape:window-height="1001"
     inkscape:window-x="-9"
     inkscape:window-y="-9"
     inkscape:window-maximized="1"
     inkscape:current-layer="svg5"
     inkscape:lockguides="false"
     showguides="true"
     inkscape:showpageshadow="2"
     inkscape:deskcolor="#d1d1d1">
    <inkscape:grid
       type="xygrid"
       id="grid2352"
       originx="0"
       originy="0"
       spacingy="1"
       spacingx="1"
       units="px"
       visible="false" />
  </sodipodi:namedview>
  <defs
     id="defs2" />
  <metadata
     id="metadata1">
    <rdf:RDF>
      <cc:Work
         rdf:about="">
        <dc:title>CaptureCap notification record icon</dc:title>
        <dc:creator>
          <cc:Agent>
            <dc:title>Egor Olegovich Yakovlev</dc:title>
          </cc:Agent>
        </dc:creator>
        <cc:license
           rdf:resource="http://creativecommons.org/publicdomain/zero/1.0/" />
      </cc:Work>
      <cc:License
         rdf:about="http://creativecommons.org/publicdomain/zero/1.0/">
        <cc:permits
           rdf:resource="http://creativecommons.org/ns#Reproduction" />
        <cc:permits
           rdf:resource="http://creativecommons.org/ns#Distribution" />
        <cc:permits
           rdf:resource="http://creativecommons.org/ns#DerivativeWorks" />
      </cc:License>
    </rdf:RDF>
  </metadata>
  <g
     id="g2"
     transform="matrix(1.2112521,0,0,1.208463,3.8901843,-5.3432215)"
     style="stroke-width:0.826544">
    <path
       id="path1"
       style="baseline-shift:baseline;display:inline;overflow:visible;vector-effect:none;fill:#ffffff;stroke-linecap:square;enable-background:accumulate;stop-color:#000000;stop-opacity:1;opacity:1"
       d="M 84.587947 23.431827 L 39.443409 35.529229 L 39.443409 78.116017 C 38.415083 77.61726 37.282217 77.309026 36.124604 77.186797 C 33.383115 76.89733 30.399015 77.560585 27.646058 79.150005 C 24.893101 80.739425 22.825204 82.99322 21.705145 85.512153 C 20.585086 88.031085 20.438295 90.950792 21.844228 93.38594 C 23.250162 95.821089 25.852128 97.154171 28.593617 97.443637 C 31.335108 97.733107 34.320914 97.068994 37.07387 95.479574 C 39.826827 93.890153 41.893445 91.637217 43.013503 89.118282 C 43.812463 87.321479 44.115884 85.320702 43.71404 83.437335 L 43.818566 83.437335 L 43.818566 81.250053 L 43.818566 38.884772 L 80.214923 29.132872 L 80.214923 66.003221 C 79.167326 65.483385 78.008229 65.163208 76.823163 65.03808 C 74.081673 64.748614 71.095867 65.41315 68.34291 67.002572 C 65.589953 68.591992 63.522056 70.845359 62.401997 73.364291 C 61.281938 75.883224 61.135146 78.803359 62.541081 81.238507 C 63.947017 83.673657 66.54898 85.00631 69.29047 85.295776 C 72.031959 85.585243 75.017767 84.921132 77.770723 83.331712 C 80.523679 81.742292 82.591576 79.488498 83.711636 76.969565 C 84.3862 75.452519 84.708072 73.790364 84.549976 72.175932 L 84.587947 72.175932 L 84.587947 69.988223 L 84.587947 23.431827 z M 75.710922 69.348929 C 75.934901 69.352182 76.152966 69.365122 76.364102 69.387415 C 78.053192 69.565762 79.191915 70.254431 79.7853 71.282204 C 80.378685 72.309977 80.405854 73.640838 79.715758 75.192799 C 79.025668 76.744769 77.591917 78.383347 75.583358 79.542989 C 73.574798 80.702632 71.440327 81.123936 69.751237 80.945586 C 68.062151 80.767246 66.923424 80.07857 66.330039 79.050797 C 65.736654 78.023024 65.709489 76.692598 66.399581 75.14063 C 67.089672 73.588663 68.521716 71.950938 70.530275 70.791295 C 72.287765 69.776608 74.143066 69.326155 75.710922 69.348929 z M 35.012363 81.497645 C 35.236296 81.500925 35.454407 81.513838 35.665543 81.536131 C 37.354632 81.714478 38.493356 82.403148 39.086741 83.43092 C 39.680126 84.458693 39.707292 85.789549 39.017199 87.341516 C 38.327107 88.893483 36.895066 90.53078 34.886505 91.690423 C 32.877946 92.850065 30.741767 93.272649 29.052678 93.094303 C 27.36359 92.915957 26.224865 92.227287 25.63148 91.199514 C 25.038095 90.171741 25.010931 88.841313 25.701022 87.289346 C 26.391115 85.73738 27.82529 84.098798 29.833849 82.939156 C 31.59134 81.924469 33.444831 81.474685 35.012363 81.497645 z " />
  </g>
</svg>
